<?xml version="1.0" encoding="utf-8"?>
<!-- Generator: Adobe Illustrator 26.0.1, SVG Export Plug-In . SVG Version: 6.00 Build 0)  -->
<svg version="1.1" id="Слой_1" xmlns="http://www.w3.org/2000/svg" xmlns:xlink="http://www.w3.org/1999/xlink" x="0px" y="0px"
	 viewBox="0 0 170 170" style="enable-background:new 0 0 170 170;" xml:space="preserve">
<style type="text/css">
	.st0{fill:none;stroke:#ece6ff;stroke-width:5;stroke-miterlimit:10;}
	.st1{fill:none;stroke:#ccbbff;stroke-width:5;stroke-miterlimit:10;}
	.st2{fill:none;stroke:#9973ff;stroke-width:7;stroke-miterlimit:10;}
	.st3{fill:none;stroke:#865cfd;stroke-width:6;stroke-miterlimit:10;}
</style>
<g>
	<path class="st0" d="M16.2,48c-2.7,4.1-6,9.9-8.2,17.3C5.7,73.3,5.5,80.1,5.7,85"/>
	<path class="st1" d="M16.2,48c3.6-5.3,12.1-16.2,28.3-24.4C61.4,15,77.4,14.1,84.6,14"/>
	<path class="st2" d="M153,48c2.7,4.1,6,9.9,8.2,17.3c0.4,1.2,1.1,3.8,1.6,7.1c0.9,5.2,0.9,9.7,0.8,13"/>
	<path class="st3" d="M153,48c-3.6-5.3-12.1-16.2-28.3-24.4C107.8,15,91.8,14.1,84.6,14"/>
</g>
<g>
	<path class="st0" d="M16.3,122c-2.7-4.1-6-9.9-8.2-17.3C5.7,96.7,5.5,89.9,5.8,85"/>
	<path class="st1" d="M16.3,122c3.6,5.3,12.1,16.2,28.3,24.4c16.9,8.5,32.9,9.5,40.1,9.6"/>
	<path class="st2" d="M153.1,122c2.7-4.1,6-9.9,8.2-17.3c2.3-7.9,2.5-14.8,2.3-19.7"/>
	<path class="st3" d="M153.1,122c-3.6,5.3-12.1,16.2-28.3,24.4c-16.9,8.5-32.9,9.5-40.1,9.6"/>
</g>
<path class="st2" d="M142.6,88.7"/>
</svg>
