<?xml version="1.0" encoding="utf-8"?>
<svg version="1.1" id="Слой_1" xmlns="http://www.w3.org/2000/svg" xmlns:xlink="http://www.w3.org/1999/xlink" x="0px" y="0px"
	 viewBox="0 0 170 170" style="enable-background:new 0 0 170 170;" xml:space="preserve">
<style type="text/css">
	.st0{fill:none;stroke:#ece6ff;stroke-width:5;stroke-miterlimit:10;}
	.st1{fill:none;stroke:#ccbbff;stroke-width:5;stroke-miterlimit:10;}
	.st2{fill:none;stroke:#9973ff;stroke-width:7;stroke-miterlimit:10;}
	.st3{fill:none;stroke:#865cfd;stroke-width:6;stroke-miterlimit:10;}
</style>
<g>
	<path class="st0" d="M13.8,42.5c-2.8,4.7-6.2,11.4-8.5,19.9c-2.4,9.1-2.6,17-2.4,22.6"/>
	<path class="st1" d="M13.8,42.5c3.7-6.1,12.5-18.6,29.3-28c17.5-9.8,34.1-10.9,41.5-11"/>
	<path class="st2" d="M155.4,42.5c2.8,4.7,6.2,11.4,8.5,19.9c0.4,1.4,1.1,4.3,1.7,8.2c0.9,6,1,11.1,0.8,14.9"/>
	<path class="st3" d="M155.4,42.5c-3.7-6.1-12.5-18.6-29.3-28C108.6,4.7,92,3.6,84.6,3.5"/>
</g>
<g>
	<path class="st0" d="M13.8,127.5c-2.8-4.7-6.2-11.4-8.5-19.9c-2.4-9.1-2.6-17-2.4-22.6"/>
	<path class="st1" d="M13.8,127.5c3.7,6.1,12.6,18.6,29.3,28c17.5,9.8,34.1,10.9,41.5,11"/>
	<path class="st2" d="M155.5,127.5c2.8-4.7,6.2-11.4,8.5-19.9c2.4-9.1,2.6-17,2.4-22.6"/>
	<path class="st3" d="M155.5,127.5c-3.7,6.1-12.6,18.6-29.3,28c-17.5,9.8-34.1,10.9-41.5,11"/>
</g>
<path class="st2" d="M142.6,88.7"/>
</svg>
